/* XPM */
static char *result[] = {
/* columns rows colors chars-per-pixel */
"32 32 15 1 ",
"  c #763C1C",
". c #AB3420",
"X c #E43B00",
"o c #AB5E20",
"O c #D76E35",
"+ c #FF5745",
"@ c #55DE30",
"# c #FF9E47",
"$ c #FFA55C",
"% c #FCC458",
"& c #FFE777",
"* c #FF7D80",
"= c #5CDEFF",
"- c #DDF6F7",
"; c None",
/* pixels */
";;;;;;;;;;;;;;;;;;;;;;;;;;;;;;;;",
";;;;;;;;;;;;;;;;;;;;;;;;;;;;;;;;",
";;;;;;;;;;;;;;;;;;;;;;;;;;;;;;;;",
";;;;;;;;;;;;;;;;;;;;;;;;;;;;;;;;",
";;;;;;;;;;;;+****+XX;;;;;;;;;;;;",
";;;;;;;;;+**$$$$$=**+X.;;;;;;;;;",
";;;;;;;+*$@*$==*$*=$$*+X.;;;;;;;",
";;;;;;+&*$@*$***$$$$$-**+.;;;;;;",
";;;;;*$*&***$&&$--*$$*-$@+X;;;;;",
";;;;*$$=**$&&$$$***$==*$@*+X;;;;",
";;;+$&$=*$&&&+++++*$***$**++.;;;",
";;;*&$$**$&&+XXXXX+*$$$$&**+X.;;",
";;X$--*$$&$+XX...XX+$$$&*$$++X;;",
";++&***$$&*+...   .X*$@@*$$+*+X;",
";X+&&@@*$$*X  ;;;;  *$***&$+**X;",
";X+$&***$$$XXX;;;;X+$$$$$&*+X*.;",
";.+*&&$$$-*$*++XX+*$$$-*$&*+XX.;",
";.++$&&$-**==*$$$$$$$$-*&$+XX.;;",
";;.++*&&*$$****@$$=*$$*&&*XX%.;;",
";;.XX+*$&&&$$$@*$$*=*$&&$+X%% ;;",
";;.OX+++*$&&&&&$$$$**$$*++.%O ;;",
";;;..XX++**+**$&&&&&$$+++X%#.;;;",
";;;.oOOO.X**+++++++++**X.%#O ;;;",
";;;;.oOO##X+$&&*++***+X%%%O.;;;;",
";;;;;.OOO##.XX+&$*+XX.%%Oo.;;;;;",
";;;;;;.oOOOOOO.XXX..##Ooo.;;;;;;",
";;;;;;; .ooOOOOO###OOoo. ;;;;;;;",
";;;;;;;;; ..oooOOOoo.  ;;;;;;;;;",
";;;;;;;;;;;;  ...   ;;;;;;;;;;;;",
";;;;;;;;;;;;;;;;;;;;;;;;;;;;;;;;",
";;;;;;;;;;;;;;;;;;;;;;;;;;;;;;;;",
";;;;;;;;;;;;;;;;;;;;;;;;;;;;;;;;"
};
