/* XPM */
static char *result[] = {
/* columns rows colors chars-per-pixel */
"29 23 11 1 ",
"  c #684415",
". c #392041",
"X c #6C3B4F",
"o c #00635C",
"O c #986A20",
"+ c #946548",
"@ c #B8734E",
"# c #3FC778",
"$ c #A1EF79",
"% c #00A383",
"& c None",
/* pixels */
"&&&&&&&&&&&&&&&&&&&&&&&&&&&&&",
"&&&&oooooooooooooooooooooo&&&",
"&&&o######################o&&",
"&&o#$$$$$$$$$$$$$$$$$$$$$$#o&",
"&&o#$$$$$$$$$$$$$$$$$$$$$$#o&",
"&o#$$$$$$#$#$#$#$#$#$$$$$$$#o",
"&o#$#$$$#%#%#%#%#%#%#$$$$#$#o",
"&o###$$$$#%#%#%#%#%#$$$$$###o",
"&o##$$$$#$#$#$#$#$#$#$$$$$##o",
"&o#$#$$$$$$$$$$$$$$$$$$$$#$#o",
"&o###$$$$$$$$$$$$$$$$$$$$###o",
"&o##$$$$$$$$$$$$$$$$$$$$$$##o",
"&o#$#$#$#$#$#$#$#$#$#$#$#$##o",
"&o##$#$###$#$###$#$###$#$###o",
"&.oo######################oo.",
"&&.+oooooooooooooooooooooo .&",
"&&.XX + + + + + + + + + +XX.&",
"&&.@+XX................XX+@.&",
"&&&.@ .&&&&&&&&&&&&&&&&. @.&&",
"&&&.O .&&&&&&&&&&&&&&&&. O.&&",
"&&&.@ .&&&&&&&&&&&&&&&&. @.&&",
"&&&....&&&&&&&&&&&&&&&&....&&",
"&&&&&&&&&&&&&&&&&&&&&&&&&&&&&"
};
