/* XPM */
static char *result[] = {
/* columns rows colors chars-per-pixel */
"78 78 11 1 ",
"  c #7D7274",
". c #807679",
"X c #918986",
"o c #88837E",
"O c #8C8885",
"+ c #968A8E",
"@ c #8D8183",
"# c #918589",
"$ c #6E6764",
"% c #706966",
"& c white",
/* pixels */
"   ......   ......   ......   ......   ......   ......   ......   ......   ...",
"   ......   ......   ......   ......   ......   ......   ......   ......   ...",
"XXXXXXXXXXXXXXXXXXXXXXXXXXXXXXXXXXXXXXXXXXXXXXXXXXXXXXXXXXXXXXXXXXXXXXXXXXXXXX",
"XXXXXXXXXXXXXXXXXXXXXXXXXXXXXXXXXXXXXXXXXXXXXXXXXXXXXXXXXXXXXXXXXXXXXXXXXXXXXX",
"XXXXXXXXXXXXXXXXXXXXXXXXXXXXXXXXXXXXXXXXXXXXXXXXXXXXXXXXXXXXXXXXXXXXXXXXXXXXXX",
"oooOOOOOOoooOOOOOOoooOOOOOOoooOOOOOOoooOOOOOOoooOOOOOOoooOOOOOOoooOOOOOOoooOOO",
"oooOOOOOOoooOOOOOOoooOOOOOOoooOOOOOOoooOOOOOOoooOOOOOOoooOOOOOOoooOOOOOOoooOOO",
"oooOOOOOOoooOOOOOOoooOOOOOOoooOOOOOOoooOOOOOOoooOOOOOOoooOOOOOOoooOOOOOOoooOOO",
"++++++++++++++++++++++++++++++++++++++++++++++++++++++++++++++++++++++++++++++",
"++++++++++++++++++++++++++++++++++++++++++++++++++++++++++++++++++++++++++++++",
"++++++++++++++++++++++++++++++++++++++++++++++++++++++++++++++++++++++++++++++",
"@@@######@@@######@@@######@@@######@@@######@@@######@@@######@@@######@@@###",
"@@@######@@@######@@@######@@@######@@@######@@@######@@@######@@@######@@@###",
"@@@######@@@######@@@######@@@######@@@######@@@######@@@######@@@######@@@###",
"XXXXXXXXXXXXXXXXXXXXXXXXXXXXXXXXXXXXXXXXXXXXXXXXXXXXXXXXXXXXXXXXXXXXXXXXXXXXXX",
"XXXXXXXXXXXXXXXXXXXXXXXXXXXXXXXXXXXXXXXXXXXXXXXXXXXXXXXXXXXXXXXXXXXXXXXXXXXXXX",
"XXXXXXXXXXXXXXXXXXXXXXXXXXXXXXXXXXXXXXXXXXXXXXXXXXXXXXXXXXXXXXXXXXXXXXXXXXXXXX",
"oooOOOOOOoooOOOOOOoooOOOOOOoooOOOOOOoooOOOOOOoooOOOOOOoooOOOOOOoooOOOOOOoooOOO",
"oooOOOOOOoooOOOOOOoooOOOOOOoooOOOOOOoooOOOOOOoooOOOOOOoooOOOOOOoooOOOOOOoooOOO",
"oooOOOOOOoooOOOOOOoooOOOOOOoooOOOOOOoooOOOOOOoooOOOOOOoooOOOOOOoooOOOOOOoooOOO",
"++++++++++++++++++++++++++++++++++++++++++++++++++++++++++++++++++++++++++++++",
"++++++++++++++++++++++++++++++++++++++++++++++++++++++++++++++++++++++++++++++",
"++++++++++++++++++++++++++++++++++++++++++++++++++++++++++++++++++++++++++++++",
"@@@######@@@######@@@######@@@######@@@######@@@######@@@######@@@######@@@###",
"@@@######@@@######@@@######@@@######@@@######@@@######@@@######@@@######@@@###",
"@@@######@@@######@@@######@@@######@@@######@@@######@@@######@@@######@@@###",
"XXXXXXXXXXXXXXXXXXXXXXXXXXXXXXXXXXXXXXXXXXXXXXXXXXXXXXXXXXXXXXXXXXXXXXXXXXXXXX",
"XXXXXXXXXXXXXXXXXXXXXXXXXXXXXXXXXXXXXXXXXXXXXXXXXXXXXXXXXXXXXXXXXXXXXXXXXXXXXX",
"XXXXXXXXXXXXXXXXXXXXXXXXXXXXXXXXXXXXXXXXXXXXXXXXXXXXXXXXXXXXXXXXXXXXXXXXXXXXXX",
"oooOOOOOOoooOOOOOOoooOOOOOOoooOOOOOOoooOOOOOOoooOOOOOOoooOOOOOOoooOOOOOOoooOOO",
"oooOOOOOOoooOOOOOOoooOOOOOOoooOOOOOOoooOOOOOOoooOOOOOOoooOOOOOOoooOOOOOOoooOOO",
"oooOOOOOOoooOOOOOOoooOOOOOOoooOOOOOOoooOOOOOOoooOOOOOOoooOOOOOOoooOOOOOOoooOOO",
"++++++++++++++++++++++++++++++++++++++++++++++++++++++++++++++++++++++++++++++",
"++++++++++++++++++++++++++++++++++++++++++++++++++++++++++++++++++++++++++++++",
"++++++++++++++++++++++++++++++++++++++++++++++++++++++++++++++++++++++++++++++",
"@@@######@@@######@@@######@@@######@@@######@@@######@@@######@@@######@@@###",
"@@@######@@@######@@@######@@@######@@@######@@@######@@@######@@@######@@@###",
"@@@######@@@######@@@######@@@######@@@######@@@######@@@######@@@######@@@###",
"XXXXXXXXXXXXXXXXXXXXXXXXXXXXXXXXXXXXXXXXXXXXXXXXXXXXXXXXXXXXXXXXXXXXXXXXXXXXXX",
"XXXXXXXXXXXXXXXXXXXXXXXXXXXXXXXXXXXXXXXXXXXXXXXXXXXXXXXXXXXXXXXXXXXXXXXXXXXXXX",
"XXXXXXXXXXXXXXXXXXXXXXXXXXXXXXXXXXXXXXXXXXXXXXXXXXXXXXXXXXXXXXXXXXXXXXXXXXXXXX",
"oooOOOOOOoooOOOOOOoooOOOOOOoooOOOOOOoooOOOOOOoooOOOOOOoooOOOOOOoooOOOOOOoooOOO",
"oooOOOOOOoooOOOOOOoooOOOOOOoooOOOOOOoooOOOOOOoooOOOOOOoooOOOOOOoooOOOOOOoooOOO",
"oooOOOOOOoooOOOOOOoooOOOOOOoooOOOOOOoooOOOOOOoooOOOOOOoooOOOOOOoooOOOOOOoooOOO",
"++++++++++++++++++++++++++++++++++++++++++++++++++++++++++++++++++++++++++++++",
"++++++++++++++++++++++++++++++++++++++++++++++++++++++++++++++++++++++++++++++",
"++++++++++++++++++++++++++++++++++++++++++++++++++++++++++++++++++++++++++++++",
"@@@######@@@######@@@######@@@######@@@######@@@######@@@######@@@######@@@###",
"@@@######@@@######@@@######@@@######@@@######@@@######@@@######@@@######@@@###",
"@@@######@@@######@@@######@@@######@@@######@@@######@@@######@@@######@@@###",
"XXXXXXXXXXXXXXXXXXXXXXXXXXXXXXXXXXXXXXXXXXXXXXXXXXXXXXXXXXXXXXXXXXXXXXXXXXXXXX",
"XXXXXXXXXXXXXXXXXXXXXXXXXXXXXXXXXXXXXXXXXXXXXXXXXXXXXXXXXXXXXXXXXXXXXXXXXXXXXX",
"XXXXXXXXXXXXXXXXXXXXXXXXXXXXXXXXXXXXXXXXXXXXXXXXXXXXXXXXXXXXXXXXXXXXXXXXXXXXXX",
"oooOOOOOOoooOOOOOOoooOOOOOOoooOOOOOOoooOOOOOOoooOOOOOOoooOOOOOOoooOOOOOOoooOOO",
"oooOOOOOOoooOOOOOOoooOOOOOOoooOOOOOOoooOOOOOOoooOOOOOOoooOOOOOOoooOOOOOOoooOOO",
"oooOOOOOOoooOOOOOOoooOOOOOOoooOOOOOOoooOOOOOOoooOOOOOOoooOOOOOOoooOOOOOOoooOOO",
"++++++++++++++++++++++++++++++++++++++++++++++++++++++++++++++++++++++++++++++",
"++++++++++++++++++++++++++++++++++++++++++++++++++++++++++++++++++++++++++++++",
"++++++++++++++++++++++++++++++++++++++++++++++++++++++++++++++++++++++++++++++",
"@@@######@@@######@@@######@@@######@@@######@@@######@@@######@@@######@@@###",
"@@@######@@@######@@@######@@@######@@@######@@@######@@@######@@@######@@@###",
"@@@######@@@######@@@######@@@######@@@######@@@######@@@######@@@######@@@###",
"XXXXXXXXXXXXXXXXXXXXXXXXXXXXXXXXXXXXXXXXXXXXXXXXXXXXXXXXXXXXXXXXXXXXXXXXXXXXXX",
"XXXXXXXXXXXXXXXXXXXXXXXXXXXXXXXXXXXXXXXXXXXXXXXXXXXXXXXXXXXXXXXXXXXXXXXXXXXXXX",
"XXXXXXXXXXXXXXXXXXXXXXXXXXXXXXXXXXXXXXXXXXXXXXXXXXXXXXXXXXXXXXXXXXXXXXXXXXXXXX",
"oooOOOOOOoooOOOOOOoooOOOOOOoooOOOOOOoooOOOOOOoooOOOOOOoooOOOOOOoooOOOOOOoooOOO",
"oooOOOOOOoooOOOOOOoooOOOOOOoooOOOOOOoooOOOOOOoooOOOOOOoooOOOOOOoooOOOOOOoooOOO",
"oooOOOOOOoooOOOOOOoooOOOOOOoooOOOOOOoooOOOOOOoooOOOOOOoooOOOOOOoooOOOOOOoooOOO",
"++++++++++++++++++++++++++++++++++++++++++++++++++++++++++++++++++++++++++++++",
"++++++++++++++++++++++++++++++++++++++++++++++++++++++++++++++++++++++++++++++",
"++++++++++++++++++++++++++++++++++++++++++++++++++++++++++++++++++++++++++++++",
"@@@######@@@######@@@######@@@######@@@######@@@######@@@######@@@######@@@###",
"@@@######@@@######@@@######@@@######@@@######@@@######@@@######@@@######@@@###",
"@@@######@@@######@@@######@@@######@@@######@@@######@@@######@@@######@@@###",
"XXXXXXXXXXXXXXXXXXXXXXXXXXXXXXXXXXXXXXXXXXXXXXXXXXXXXXXXXXXXXXXXXXXXXXXXXXXXXX",
"XXXXXXXXXXXXXXXXXXXXXXXXXXXXXXXXXXXXXXXXXXXXXXXXXXXXXXXXXXXXXXXXXXXXXXXXXXXXXX",
"XXXXXXXXXXXXXXXXXXXXXXXXXXXXXXXXXXXXXXXXXXXXXXXXXXXXXXXXXXXXXXXXXXXXXXXXXXXXXX",
"$$$%%%$$$%%%$$$%%%$$$%%%$$$%%%$$$%%%$$$%%%$$$%%%$$$%%%$$$%%%$$$%%%$$$%%%$$$%%%"
};
