/* XPM */
static char *result[] = {
/* columns rows colors chars-per-pixel */
"96 96 8 1 ",
"  c #6E5967",
". c #926475",
"X c #AD707B",
"o c #B77F83",
"O c #C39490",
"+ c #D1B1A5",
"@ c #DCCABE",
"# c white",
/* pixels */
"                                                                                                ",
"                                                                                                ",
"                                                                                                ",
"                                                                                                ",
"      .XXXXXXXXXXXXXXXXXXXXXX.  .XXXXXXXXXXXXXXXXXXXXXXXXXXXXX.  .XXXXXXXXXXXXXXXXXXXXXXX.      ",
"      XXXXXXXXXXXXXXXXXXXXXXXX  XXXXXXXXXXXXXXXXXXXXXXXXXXXXXXX    X..X.XXXXXXXXXXXXXXXXXX      ",
"      XXXXXXXXXXXXXXXXXXXXXXXX  XXXXXXXXXXXXXXXXXXXXXXXXXXXXXXX  XXXXXXXXXXXXXXXXXXXXXXXXX      ",
"      .XXXXXXXXXXXXXXXXXXXXXX.  .XXXXXXXXXXXXXXXXXXXXXXXXXXXXX.  .XXXXXXXXXXXXXXXXXXXXXXX.      ",
"                                                                                                ",
"      .XXXXXXXX  .XXXXXXXXXXXXXXXXXXXXXXXXXXXX. .XXXXXXXXXXXXXXXXXXXXXXXXXXXXX.  .XXXXXXX.      ",
"      XXXXXXXXX  XXXXXXXXXXXXXXXXXXXXXXXXXXXXXX XXXXXXXXXXXXXXXXXXXXXXXXXXXXXXX  XXXXXXXXX      ",
"      XXXXXoOOo  XXXoOOOOOOOOOOOOOOOOOOOOOOOOOo oOOOOOOOOOOOOOOOOOOOOOOOOOOoXXX  oOOoXXXXX      ",
"      XXXXXOOOO  .XXOOOOOOOOOOOOOOOOOOoOoOooO   OOOOOOOOOOOOOOOOOOOOOXXOXOXXX    OOOOXXXXX      ",
"      XXXXXOOOO    XooOooOOOOOOOOO+OO++O++OOOOo   OXOOOOOOOOOOOOOO+O+++O++OOXX.    OX.X..X      ",
"      XXXXXOOOO  XXXOO++O+OOOOOOOOOOOOOOOOOOOOO OOOOOOOOOOOOOOOOOOOOOOOOOOOOXXX  OOOOXXXXX      ",
"      .XXXXoOOX  .XXoOOOOOOOOOOOOOOOOOOOOOOOOOX XOOOOOOOOOOOOOOOOOOOOOOOOOOoXX.  XOOoXXXX.      ",
"                                                                                                ",
"    .XXXXXXoO++OOOO@@@+O++OOOX  XOOO+O++@@@+O++OOOOOOOOOOOOOOOX  XOOO+O+@@++O++OOOOOoXXXXXX.    ",
"    XXXXXXXOOOOOOOOOOOOOOOOOOO  OOOOOOOOOOOOOOOOOOOOOOOOOOOOOOO  OOOOOOOOOOOOOOOOOOOOXXXXXXX    ",
"    XXXXXXXOOOOOOOOOOOOOOOOOOO  oOOOOOOOOOOOOOOOOOOOOOOOOOOOOOO  OOOOOOOOOOOOOOOOOOOOXXXXXXX    ",
"    XXXXXXXOOOOOOOOOOOOOOOOOOo   O  OXXOXOOOOOOOOOOOOOOOOOOOOOO  OOOOOOOOOOOOOOOOOOOOX.X.X      ",
"    XXXXXXXOOOOOOOOOOXOXXO      oOO++O+OOOOOOOOOOOOOOOOOOOOOOOO  OOOOOOOOOOOOOOOOOOOOXXXXXXX    ",
"    XXXXXXXOOOOOOOOOOOO+O++OOO  OOOOOOOOOOOOOOOOOOOOOOOOOOOOOOO  OOOOOOOOOOOOOOOOOOOOXXXXXXX    ",
"    .XXXXXXoOOOOOOOOOOOOOOOOOX  XOOOOOOOOOOOOOOOOOOOOOOOOOOOOOX  XOOOOOOOOOOOOOOOOOOoXXXXXX.    ",
"                                                                                                ",
"      .XXXXoOOX  .XXoOOO++O+OOO@@@++OOOOOOOOOOX XOOO+O+++@@+++OOOOOOOOOOOOOoXX.  XOOoXXXX.      ",
"      XXXXXOOOO  XXXOOOOOOOOOOOOOOOOOOOOOOOOOOO OOOOOOOOOOOOOOOOOOOOOOOOOOOOXXX  OOOOXXXXX      ",
"      XXXXXOOOO  XXXOOOOOOOOOOOOOOOOXXXOOXOO    OOOOOOOOOOOOOOOOOOOOOOOOOOOOXXX  OOOOXXXXX      ",
"      X.X..O     .XXOOOOOOOOOOOOOOOOOOOOO++O+Oo OOOOOOOOOOOOOOOOOOOOOOOOOOOOXX.  OOOOXXXXX      ",
"      XXXXXOOOo    XooOoOOOOOOOOOOOOOOOOOOOOOOO OOOOOOOOOOOOOOOOOOOOOOXXXOXO     OOOOXXXXX      ",
"      XXXXXOOOO  XXXOO+O++OOOOOOOOOOOOOOOOOOOOO OOOOOOOOOOOOOOOOOOOOO+O++O+OXXX  OOOOXXXXX      ",
"      .XXXXoOOX  .XXoOOOOOOOOOOOOOOOOOOOOOOOOOX XOOOOOOOOOOOOOOOOOOOOOOOOOOoXX.  XOOoXXXX.      ",
"                                                                                                ",
"    .XXXXXXoOOOOOO+@+OOO++OOOX  XOOOO+++++OO+OOOOOOOOOOOOOOOOOX  XOOOO+@@+OO+OOOOOOOoXXXXXX.    ",
"    XXXXXXXOOOOOOOOOOOOOOOOOOO  OOOOOOOOOOOOOOOOOOOOOOOOOOOOOOO  OOOOOOOOOOOOOOOOOOOOXXXXXXX    ",
"    XXXXXXXOOOOOOOOOOOOOOOOOOO  OOOOOOOOOOOOOOOOOOOOXOXXXXXOO    OOOOOOOOOOOOOOOOOOOOXXXXXXX    ",
"      X.X..XOXOOOOOOOOOOOOOOOO  OOOOOOOOOOOOOOOOOOOOO+O+++OOOOo  OOOOOOOOOOOOOOOOOOOOXXXXXXX    ",
"    XXXXXXXOOOOOOOOOOOOOOOOOOO  OOOOOOOOOOOOOOOOOOOOOOOOOOOOOOO  OOOOOOOOOOOOOOOOOOOOXXXXXXX    ",
"    XXXXXXXOOOOOOOOOOOOOOOOOOO  OOOOOOOOOOOOOOOOOOOOOOOOOOOOOOO  OOOOOOOOOOOOOOOOOOOOXXXXXXX    ",
"    .XXXXXXoOOOOOOOOOOOOOOOOOX  XOOOOOOOOOOOOOOOOOOOOOOOOOOOOOX  XOOOOOOOOOOOOOOOOOOoXXXXXX.    ",
"                                                                                                ",
"      .XXXXoOOX  .XXoOO++@@@@+OO+++OOOOOOOOOOOX XOOO+O+++++OOOOOOOOOOOOOOOOoXX.  XOOoXXXX.      ",
"      XXXXXOOOO  XXXOOOOOOOOOOOOOOOOOOOOOOOOOOO OOOOOOOOOOOOOOOOOOOOOOOOOOOOXXX  OOOOXXXXX      ",
"      XXXXXOOOO  XXXOOOOOOOOOOOOOOOOOOOXXOXOO   OOOOOOOOOOOOOOOOOOOOOXOXXOXXX    OOOOXXXXX      ",
"      XXXXXOOOO  XXXOOOOOOOOOOOOOOOOOO+O++OOOOo OOOOOOOOOOOOOOOOOOOOOO+O++OOXX.  OOOOXXXXX      ",
"      XXXXXOOOO  XXXOOOOOOOOOOOOOOOOOOOOOOOOOOO OOOOOOOOOOOOOOOOOOOOOOOOOOOOXXX    OX.X.XX      ",
"      XXXXXOOOO  XXXOOOOOOOOOOOOOOOOOOOOOOOOOOO OOOOOOOOOOOOOOOOOOOOOOOOOOOOXXX  OOOOXXXXX      ",
"      .XXXXoOOX  .XXoOOOOOOOOOOOOOOOOOOOOOOOOOX XOOOOOOOOOOOOOOOOOOOOOOOOOOoXX.  XOOoXXXX.      ",
"                                                                                                ",
"    .XXXXXXoOOOO++@@@@++O+OOOX  XOOO+O++@@@+O++OOOOOOOOOOOOOOOX  XOOO+O+@@@+O++OOOOOoXXXXXX.    ",
"    XXXXXXXOOOOOOOOOOOOOOOOOOO  OOOOOOOOOOOOOOOOOOOOOOOOOOOOOOO  OOOOOOOOOOOOOOOOOOOOXXXXXXX    ",
"    XXXXXXXOOOOOOOOOOOOOOOOOOO  OOOOOOOOOOOOOOOOOOOOOOOOOOOOOOO  OOOOOOOOOOOOOOOOOOOOXXXXXXX    ",
"    XXXXXXXOOOOOOOOOOOOOOOOOOo  OOOOOOOOOOOOOOOOOOOOOOOOOOOOOOo  OOOOOOOOOOOOOOOOOOOOX..XX      ",
"    XXXXXXXOOOOOOOOOOOXOXXO     OOOOOOOOOOOOOOOOOOOOOOXXOXO      OOOOOOOOOOOOOOOOOOOOXXXXXXX    ",
"    XXXXXXXOOOOOOOOOOOO+O++OOO  OOOOOOOOOOOOOOOOOOOOOOOO+O++OOO  OOOOOOOOOOOOOOOOOOOOXXXXXXX    ",
"    .XXXXXXoOOOOOOOOOOOOOOOOOX  XOOOOOOOOOOOOOOOOOOOOOOOOOOOOOX  XOOOOOOOOOOOOOOOOOOoXXXXXX.    ",
"                                                                                                ",
"      .XXXXoOOX  .XXoOO+@@@+O+OOOOOOOOOOOOOOOOX XOOO+O+++@@@++OOOOOOOOOOOOOoXX.  XOOoXXXX.      ",
"      XXXXXOOOO  XXXOOOOOOOOOOOOOOOOOOOOOOOOOOO OOOOOOOOOOOOOOOOOOOOOOOOOOOOXXX  OOOOXXXXX      ",
"      XXXXXOOOO  XXXOOOOOOOOOOOOOOOOXXXOOXOO    OOOOOOOOOOOOOOOOOOOOXXXOOXXO     OOOOXXXXX      ",
"      XXXXXOOOo  XXXOOOOOOOOOOOOOOOOO+OOO++O+Oo OOOOOOOOOOOOOOOOOOO+O+++O++OXX.  OOOOXXXXX      ",
"      XXX..XO    XXXOOOOOOOOOOOOOOOOOOOOOOOOOOO OOOOOOOOOOOOOOOOOOOOOOOOOOOOXXX  OOOOXXXXX      ",
"      XXXXXOOOO  XXXOOOOOOOOOOOOOOOOOOOOOOOOOOO OOOOOOOOOOOOOOOOOOOOOOOOOOOOXXX  OOOOXXXXX      ",
"      .XXXXoOOX  .XXoOOOOOOOOOOOOOOOOOOOOOOOOOX XOOOOOOOOOOOOOOOOOOOOOOOOOOoXX.  XOOoXXXX.      ",
"                                                                                                ",
"    .XXXXXXoOOOO+++@@@+O+OOOOX  XOOOO++@@+OO+OOOOOOOOOOOOOOOOOX  XOOO+@@@+OO++OOOOOOoXXXXXX.    ",
"    XXXXXXXOOOOOOOOOOOOOOOOOOO  OOOOOOOOOOOOOOOOOOOOOOOOOOOOOOO  OOOOOOOOOOOOOOOOOOOOXXXXXXX    ",
"    XXXXXXXOOOOOOOOOOOOOOOOOOO  OOOOOOOOOOOOOOOOOOOOXOXXXXXOO    OOOOOOOOOOOOOOOOOOOOXXXXXXX    ",
"      XXX..XOXOOOOOOOOOOOOOOOO  OOOOOOOOOOOOOOOOOOOOO+O+++OOOOo  OOOOOOOOOOOOOOOOOOOOXXXXXXX    ",
"    XXXXXXXOOOOOOOOOOOOOOOOOOO  OOOOOOOOOOOOOOOOOOOOOOOOOOOOOOO  OOOOOOOOOOOOOOOOOOOOXXXXXXX    ",
"    XXXXXXXOOOOOOOOOOOOOOOOOOO  OOOOOOOOOOOOOOOOOOOOOOOOOOOOOOO  OOOOOOOOOOOOOOOOOOOOXXXXXXX    ",
"    .XXXXXXoOOOOOOOOOOOOOOOOOX  XOOOOOOOOOOOOOOOOOOOOOOOOOOOOOX  XOOOOOOOOOOOOOOOOOOoXXXXXX.    ",
"                                                                                                ",
"      .XXXXoOOX  .XXoOO@@@+OOO+O++OOOOOOOOOOOOX XOOO+O+@@@+OOOOOOOOOOOOOOOOoXX.  XOOoXXXX.      ",
"      XXXXXOOOO  XXXOOOOOOOOOOOOOOOOOOOOOOOOOOO OOOOOOOOOOOOOOOOOOOOOOOOOOOOXXX  OOOOXXXXX      ",
"      XXX..XO    XXXOOOOOOOOOOOOOOOOOOOXXOXOO   OOOOOOOOOOOOOOOOOOOOOOOOOOOOXXX     O.X.XX      ",
"      XXXXXOOOo     OXXOXOOOOOOOOOOOOOOO++OOOOo oOOOOOOOOOOOOOOOOOOOOOOOOOOOXXX  oOOOXXXXX      ",
"      XXXXXOOOO  XXXOO+++O++OOOOOOOOOOOOOOOOOOO     OXXOXOOOOOOOOOOOOOOOOOOOXXX  OOOOXXXXX      ",
"      XXXXXOOOO  XXXOOOOOOOOOOOOOOOOOOOOOOOOOOO OOOOOO+++O+OOOOOOOOOOOOOOOOOXXX  OOOOXXXXX      ",
"      .XXXXoOOX  .XXoOOOOOOOOOOOOOOOOOOOOOOOOOX XOOOOOOOOOOOOOOOOOOOOOOOOOOoXX.  XOOoXXXX.      ",
"                                                                                                ",
"    .XXXXXXoO++@@++O+OOOOOOOOX  XOOO+O++@@@+O++OOOOOOOOOOOOOOOX  XOO+O+@@@@+O++OOOOOoXXXXXX.    ",
"    XXXXXXXOOOOOOOOOOOOOOOOOOO  OOOOOOOOOOOOOOOOOOOOOOOOOOOOOOO  OOOOOOOOOOOOOOOOOOOOXXXXXXX    ",
"    XXXXXXXOOOOOOOOOOOOOOOOOOO  oOOOOOOOOOOOOOOOOOOOOOOOOOOOOOO  OOOOOOOOOOOOOOOOOOOOXXXXXXX    ",
"    XXXXXXXOOOOOOOOOOOOOOOOOOo    OXXOXOOOOOOOOOOOOOOOOOOOOOOOO  OOOOOOOOOOOOOOOOOOOOXX..X      ",
"    XXXXXXXOOOOOOOOOOXOXXO      oOO++O++OOOOOOOOOOOOOOOOOOOOOOO  OOOOOOOOOOOOOOOOOOOOXXXXXXX    ",
"    XXXXXXXOOOOOOOOOOOO+O++OOO  OOOOOOOOOOOOOOOOOOOOOOOOOOOOOOO  OOOOOOOOOOOOOOOOOOOOXXXXXXX    ",
"    .XXXXXXoOOOOOOOOOOOOOOOOOX  XOOOOOOOOOOOOOOOOOOOOOOOOOOOOOX  XOOOOOOOOOOOOOOOOOOoXXXXXX.    ",
"                                                                                                ",
"      .XXXXOOOX  .XXOOO+@@++OOOOOO++O+OOOOOOOOX XOOO+O+@@@++OOOOOOOOOOOOOOOoXX.  XOOOXXXX.      ",
"      XXXXXoOOO  XXXoOOOOOOOOOOOOOOOOOOOOOOOOOO OOOOOOOOOOOOOOOOOOOOOOOOOOOOXXX  OOOoXXXXX      ",
"      XXX..X     XXXXXXXXXXXXXXXXXXXXXXXX..X    XXXXXXXXXXXXXXXXXXXXXXX.X..X     XXXXXXXXX      ",
"      XXXXXXXXX  XXXXXXXXXXXXXXXXXXXXXXXXXXXXXX XXXXXXXXXXXXXXXXXXXXXXXXXXXXXXX  XXXXXXXXX      ",
"      .XXXXXXX.  .XXXXXXXXXXXXXXXXXXXXXXXXXXXX. .XXXXXXXXXXXXXXXXXXXXXXXXXXXXX.  .XXXXXXX.      ",
"                                                                                                ",
"                                                                                                "
};
