/* XPM */
static char *result[] = {
/* columns rows colors chars-per-pixel */
"15 18 12 1 ",
"  c #6C3C4A",
". c #354048",
"X c #3C5D4C",
"o c #7D5643",
"O c #9F7854",
"+ c #6CD820",
"@ c #1FA361",
"# c #3EC259",
"$ c #C7995C",
"% c #AEC3BE",
"& c #E4E8DA",
"* c None",
/* pixels */
"***************",
"*****.XX.******",
"****.#++#.*****",
"***.@++++@.****",
"**XX##++##XX***",
"*X++@X##X@++X**",
"*...#.+#.#...**",
"****.#+##.*****",
"*** o.XX.o ****",
"***O&o$$o&O****",
"**X#o OO o#X***",
"**X+#.%%.#+X***",
"***..o  o..****",
"*** o .. o ****",
"**..#@..@#..***",
"***........****",
"***************",
"******XX.******"
};
