/* XPM */
static char *result[] = {
/* columns rows colors chars-per-pixel */
"48 48 18 1 ",
"  c #5A423B",
". c #724B36",
"X c #82553A",
"o c #94603C",
"O c #9F663D",
"+ c #986A3F",
"@ c #A12643",
"# c #B07740",
"$ c #DEC537",
"% c #D4AC7C",
"& c #738FC0",
"* c #E3BF93",
"= c #CDD6B0",
"- c #90A4C5",
"; c #AEBACD",
": c #E0E4CC",
"> c #E5E8CF",
", c None",
/* pixels */
",,,,,,,,,,,,,,,,,,,,,,,,,,,,,,,,,,,,,,,,,,,,,,,,",
",,,,,,,,,,,,,,,,,,,,,,,,,,,,,,,,,,,,,,,,,,,,,,,,",
",,,,,,,,,,,,,,,,,,,,,,,,,,,,,,,,,,,,,,,,,,,,,,,,",
",,,,,,,,,,,,,,,,,,,,,,,,,,,,,,,,,,,,,,,,,,,,,,,,",
",,,,,,,,,,,,,,,,,,,,,,,,,,,,,,,,,,,,,,,,,,,,,,,,",
",,,,,,,,,,,,,,,,,,,,,,,,,,,,,,,,,,,,,,,,,,,,,,,,",
",,,,,,,,,,,,,,,,,,,,,,,,,,,,,,,,,,,,,,,,,,,,,,,,",
",,,,,,,,,,,,,,,,,,,,,,,,,,,,,,,,,,,,,,,,,,,,,,,,",
",,,,,,,,,,,,,,,,,,,,,,,,,,,,,,,,,,,,,,,,,,,,,,,,",
",,,,,,,,,,,,,,,,,,,,,XXXXX,,,,,,,,,,,,,,,,,,,,,,",
",,,,,,,,,,,,,,,,,,,,OOOOOXX,,,,,,,,,,,,,,,,,,,,,",
",,,,,,,,,,,,,,,,,,,,XXXXXXX,,,,,,,,,,,,,,,,,,,,,",
",,,,,,,,,,,,,,,,,,,,,%**%OXO,,,,,,,,,,,,,,,,,,,,",
",,,,,,,,,,,,,,,,,,,, %*% OXO,,,,,,,,,,,,,,,,,,,,",
",,,,,,,,,,,,,,,,,,,,X    OXXO,,,,,,,,,,,,,,,,,,,",
",,,,,,,,,,,,,,,,,,,,XX   OXXO,,,,,,,,,,,,,,,,,,,",
",,,,,,,,,,,,,,,,,,,,,X  OX:XX,,,,,,,,,,,,,,,,,,,",
",,,,,,,,,,,,,,,,,,,,,XXOXX:::,,,,,,,,,,,,,,,,,,,",
",,,,,,,,,,,,,,,,,,,,>:XXX:::::,,,,,,,,,,,,,,,,,,",
",,,,,,,,,,,,,,,,,,,>>:XX::>::::,,,,,,,,,,,,,,,,,",
",,,,,,,,,,,,,,,,,,,>>:::::>>::::,,,,,,,,,,,,,,,,",
",,,,,,,,,,,,,,,,,,,=>>:::>>=::oo,,,,,,,,,,,,,,,,",
",,,,,,,,,,,,,,,,,,,:==::===::.:::,,,,,,,,,,,,,,,",
",,,,,,,,,,,,,,,,,,==:::::::==:==:,,,,,,,,,,,,,,,",
",,,,,,,,,,,,,,,,,,==::::::==,:::::,,,,$,,,,,,,,,",
",,,,,,,,,,,,,,,,,+===::::==,,,::::,,,$,$,,,,,,,,",
",,,,,,,,,,,,,,,,,++=,:::=oo,,,==###,,@$,,,,,,,,,",
",,,,,,,,,,,,,,,,,+++,oooo:=,,,,+###,@@,,,,,,,,,,",
",,,,,,,,,,,,,,,,,+++::::::==,,,++##@@,,,,,,,,,,,",
",,,,,,,,,,,,,,,,,++=:XXXX::==,,,++*@,,,,,,,,,,,,",
",,,,,,,,,,,,,,,,,%=:XXXXXX::==,$,***,,,,,,,,,,,,",
",,,,,,,,,,,,,,,,,=:XXX.XXXX::=$,$***,,,,,,,,,,,,",
",,,,,,,,,,,,,,,,,:XXOX..XXXX::,--$*,,,,,,,,,,,,,",
",,,,,,,,,,,,,,,,,XOOXXX..OXXX:---,$,,,,,,,,,,,,,",
",,,,,,,,,,,,,,,,XOOOOOXX.OOX----,$,,,,,,,,,,,,,,",
",,,,,,,,,,,,,,,,OOOOX....OO----;,,,,,,,,,,,,,,,,",
",,,,,,,,,,,,,,,OOOOOOX....-&--;,,,,,,,,,,,,,,,,,",
",,,,,,,,,,,,,,,OOOXXX.,,,-&--;XX,,,,,,,,,,,,,,,,",
",,,,,,,,,,,,,,,,....X,,,-&--;OXX,,,,,,,,,,,,,,,,",
",,,,,,,,,,,,,,,,####,,,-&--;####,,,,,,,,,,,,,,,,",
",,,,,,,,,,,,,,,,,+##,,-&--;,,+##,,,,,,,,,,,,,,,,",
",,,,,,,,,,,,,,,,,+##,,&--;,,,+##,,,,,,,,,,,,,,,,",
",,,,,,,,,,,,,,,,,+##,,--;,,,,+###,,,,,,,,,,,,,,,",
",,,,,,,,,,,,,,,,+###,--;,,,,,+###,,,,,,,,,,,,,,,",
",,,,,,,,,,,,,,,+####,;;,,,,,+####,,,,,,,,,,,,,,,",
",,,,,,,,,,,,,,#####,;;,,,,,#####,,,,,,,,,,,,,,,,",
",,,,,,,,,,,,,,,,,,,,,,,,,,,,,,,,,,,,,,,,,,,,,,,,",
",,,,,,,,,,,,,,,,,,,,,,,,,,,,,,,,,,,,,,,,,,,,,,,,"
};
