/* XPM */
static char *result[] = {
/* columns rows colors chars-per-pixel */
"64 67 5 1 ",
"  c #101E29",
". c #50576B",
"X c #2E3740",
"o c #8D87A2",
"O c white",
/* pixels */
" .X o..o... ...X..X o..o... ........ ...o..o X..X... ...o..o X. ",
" ..  .X.XXX .X.XX.   .X.XXX .X.XX.X. XXX.X.   .XX.X. XXX.X.  .. ",
"  X  XXXXX X XXXX X  XXXXX X XXXXXX X XXXXX  X XXXX X XXXXX  X  ",
"          X        X      X          X      X        X          ",
" X .ooo       X.XX .ooo       XXXX .ooo       X.XX .ooo       X ",
" X ..ooo. .o.  XXX ..ooo. .o.  XXX ..ooo. .o.  XXX ..ooo. .o.   ",
"   X....X ...   X  X....X ...   X  X....X ...   X  X....X ...   ",
"   X..X.X ...ooo   X..X.X ....oo   X..X.X ...ooo   X..X.X ....o ",
" . X.X.XX .X..ooo. X.X.XX .X.oooo. X.X.XX .X..ooo. X.X.XX .X.oo ",
" .  XXXX  .XX....X  XXXX  XX......  XXXX  .XX....X  XXXX  XX... ",
" X        XX...X.X       XXXX....X        XX...X.X       XXXX.. ",
" X ooooo  XXX.XXX.Xooooo  XXX.X.XX ooooo  XXX.XXX.Xooooo  XXX.X ",
" X .ooo..o XXXX..X .ooo..o XXXX.XX .ooo..o XXXX..X .ooo..o XXX  ",
" X X.....oo XXXX.X X.....oo XXXX.X X.....oo XXXX.X X.....oo X   ",
"   XX.X...oo   XX  XX.X...oo   XX  XX.X...oo   XX  XX.X...oo  X ",
"   .XXX....o X     .XXX....o X     .XXX....o X     .XXX....o X  ",
" o  X.XXXX..X oooo  XXXXXX..  oooo  X.XXXX..X oooo  XXXXXX..  o ",
" o.  XXXXXX. .oooo.  XXXXXX. .oooo.  XXXXXX. .oooo.  XXXXXX. .o ",
" .XX   XX.XX X....XX    X.XX X....XX   XX.XX X....XX    X.XX X. ",
" XX   . XXXX XX..XX   . XXXX X...XX   . XXXX XX..XX   . XXXX X. ",
" X oooo       X.XX oooo       X.XX oooo       X.XX oooo       X ",
" X .oooo. .o. XX.X .oooo. XXX  X.X .oooo. .o. XX.X .oooo. XXX   ",
"   .....X ...   X X.....X XXX   X  .....X ...   X X.....X XXX   ",
"   X...XX ...ooo  XX...XX  X ooo   X...XX ...ooo  XX...XX  X oo ",
" . X.XX.X .X..ooo. X.XX.X   ..ooo. X.XX.X .X..ooo. X.XX.X   ..o ",
" o  XXXX X.XX.....  XXXX  X X...oo  XXXX X.XX.....  XXXX  X X.. ",
" .       XXX.X....        . XX....       XXX.X....        . XX. ",
" . ooooo  .XXX.X.X ooooo    XX..X. ooooo  .XXX.X.X ooooo    XX. ",
" X .ooo..o XXX.XX.X.ooo..o .XX.XXX .ooo..o XXX.XX.X.ooo..o .XX  ",
" X X.....oo XXX..X X.....oo XXXX.X X.....oo XXX..X X.....oo X   ",
"   XX.X.X.oo   X.  XX.X.X.oo XXXX  XX.X.X.oo   X.  XX.X.X.oo  X ",
"   .XXX.X..o X     .XXX.X..o       .XXX.X..o X     .XXX.X..o    ",
" o  XXXXXX..  oooo  X.XXXX..  oooo  XXXXXX..  oooo  X.XXXX..  o ",
" o.  XXXXXX. .oooo.  XXXXXX. .oooo.  XXXXXX. .oooo.  XXXXXX. .o ",
" .XX    X.XX X....XX    X.XX X....XX    X.XX X....XX    X.XX X. ",
" XX   . XXXX X..X.X   . XXXX XXXXXX   . XXXX X..X.X   . XXXX X  ",
" X .ooo       X.XX .ooo       XXXX .ooo       X.XX .ooo         ",
" X ..ooo. .o.  XXX ..ooo. .o.  XXX ..ooo. .o.  XXX ..ooo. .o. X ",
"   X....X ...   X  X....X ...   X  X....X ...   X  X....X ...   ",
"   X..X.X ...ooo   X..X.X ....oo   X..X.X ...ooo   X..X.X ....o ",
" . X.X.XX .X..ooo. X.X.XX .X.oooo. X.X.XX .X..ooo. X.X.XX .X.oo ",
" .  XXXX  .XX....X  XXXX  XX......  XXXX  .XX....X  XXXX  XX... ",
" X        XX...X.X       XXXX....X        XX...X.X       XXXX.. ",
" X ooooo  XXX.XXX.Xooooo  XXX.X.XX ooooo  XXX.XXX.Xooooo  XXX.X ",
" X .ooo..o XXXX..X .ooo..o XXXX.XX .ooo..o XXXX..X .ooo..o XXXX ",
" X X.....oo XXXX.X X.....oo XXXX.X X.....oo XXXX.X X.....oo XXX ",
"   XX.X...oo   XX  XX.X...oo   XX  XX.X...oo   XX  XX.X...oo    ",
"   .XXX....o X     .XXX....o X     .XXX....o X     .XXX....o X  ",
" o  X.XXXX..X oooo  XXXXXX..  oooo  X.XXXX..X oooo  XXXXXX..  o ",
" o.  XXXXXX. .oooo.  XXXXXX. .oooo.  XXXXXX. .oooo.  XXXXXX. .o ",
" .XX   XX.XX X....XX    X.XX X....XX   XX.XX X....XX    X.XX X. ",
" XX   . XXXX XX..XX   . XXXX X...XX   . XXXX XX..XX   . XXXX X  ",
" X oooo       X.XX oooo       X.XX oooo       X.XX oooo         ",
" X .oooo. .o. XX.X .oooo. XXX  X.X .oooo. .o. XX.X .oooo. XXX X ",
"   .....X ...   X X.....X XXX   X  .....X ...   X X.....X XXX   ",
"   X...XX ...ooo  XX...XX  X ooo   X...XX ...ooo  XX...XX  X oo ",
" . X.XX.X .X..ooo. X.XX.X   ..ooo. X.XX.X .X..ooo. X.XX.X   ..o ",
" o  XXXX X.XX.....  XXXX  X X...oo  XXXX X.XX.....  XXXX  X X.. ",
" .       XXX.X....        . XX....       XXX.X....        . XX. ",
" . ooooo  .XXX.X.X ooooo    XX..X. ooooo  .XXX.X.X ooooo    XX  ",
" X .ooo..o XXX.XX.X.ooo..o .XX.XXX .ooo..o XXX.XX.X.ooo..o .XX  ",
".  X.....oo XXX..X X.....oo XXXX.X X.....oo XXX..X X.....oo X  o",
".  XX.X.X.oo   X.  XX.X.X.oo XXXX  XX.X.X.oo   X.  XX.X.X.oo  ..",
".o .XXX.X..o X     .XXX.X..o       .XXX.X..o X     .XXX.X..o ...",
"..  XXXXXX..  ....  X.XXXX..  ....  XXXXXX..  ....  X.XXXX.. ...",
"...  XXXX    ......  XXXX    ......  XXXX    ......  XXXX    ...",
"...o     .....oo...o     .....oo...o     .....oo...o     .....oo"
};
