/* XPM */
static char *result[] = {
/* columns rows colors chars-per-pixel */
"70 70 7 1 ",
"  c #33B642",
". c #279453",
"X c #6CDB00",
"o c #2A8160",
"O c #32524F",
"+ c #392523",
"@ c white",
/* pixels */
" ..      XXXXXXXXXXXXXXXXXXXXXX                ..      ......oo......o",
" ..      XXXXXXXXXXXXXXXXXXXXXX                ..      ......oo......o",
"       XXXXXXXXXXXXXXXX    XX      XX          ......oooo......ooooooo",
"       XXXXXXXXXXXXXXXX    XX      XX          ......oooo......ooooooo",
"o    ..  XXXX                      XXXXXXXX      ....  oooooooooooooo.",
"o    ..  XXXX                      XXXXXXXX      ....  oooooooooooooo.",
".......          XX                  XXXX    ....  XXXX  ..oooo...... ",
".......          XX                  XXXX    ....  XXXX  ..oooo...... ",
".....      ....XXXXXX    XXXX      XXXXXXXXXX..    oo      oooooooo   ",
".....      ....XXXXXX    XXXX      XXXXXXXXXX..    oo      oooooooo   ",
"XXX............  XXXXXXXXXXXXXXXX      XXXXXXXXXX  ....  ....oooo.... ",
"XXX............  XXXXXXXXXXXXXXXX      XXXXXXXXXX  ....  ....oooo.... ",
".oo        XXXXXXXXXXXXXXXXXXXXXXXXXXXXXXXXXXXX      oo....oooooooo..X",
".oo        XXXXXXXXXXXXXXXXXXXXXXXXXXXXXXXXXXXX      oo....oooooooo..X",
"o..XXXX  XXXXXXXXXXXXXXXXXXXXXXXXXXXXXXXXXXXX  XX  ....oooooooooo.... ",
"o..XXXX  XXXXXXXXXXXXXXXXXXXXXXXXXXXXXXXXXXXX  XX  ....oooooooooo.... ",
"o  XX      XXXX    XXXXXXXXXXXXXXXX    XXXX      ........oooooo...... ",
"o  XX      XXXX    XXXXXXXXXXXXXXXX    XXXX      ........oooooo...... ",
"ooooo..          XXXXXXXXXXXXXX      XXXXXX  ............oooooo....   ",
"ooooo..          XXXXXXXXXXXXXX      XXXXXX  ............oooooo....   ",
" ..  XXXX    XXXXXX    XXXXXXXXXX        ..........oooooooooo.........",
" ..  XXXX    XXXXXX    XXXXXXXXXX        ..........oooooooooo.........",
"X....XX  ..    XX  ........  XX    ..................oo........oooooo.",
"X....XX  ..    XX  ........  XX    ..................oo........oooooo.",
"     ........    ........    ..................  ......oo..........oo ",
"     ........    ........    ..................  ......oo..........oo ",
"   XXXX..oo..............................  XXXXXX        ......    ...",
"   XXXX..oo..............................  XXXXXX        ......    ...",
"XXXXXXXoo  XXXX  ..............    ....    XXXX    XXXXXXXX  XXXXXX   ",
"XXXXXXXoo  XXXX  ..............    ....    XXXX    XXXXXXXX  XXXXXX   ",
"XXX    ..XXXXXX    ......  ......XXXX        XXXXXXXXXXXXXXXXXXXX     ",
"XXX    ..XXXXXX    ......  ......XXXX        XXXXXXXXXXXXXXXXXXXX     ",
"XXXXX      XX  ..................  XX    XXXXXXXXXXXXXXXXXXXXXXXXXXXXX",
"XXXXX      XX  ..................  XX    XXXXXXXXXXXXXXXXXXXXXXXXXXXXX",
"XXXXXXXXX      ....    ......    XXXXXX  XXXXXXXXXXXXXXXXXXXXXXXXXXXX ",
"XXXXXXXXX      ....    ......    XXXXXX  XXXXXXXXXXXXXXXXXXXXXXXXXXXX ",
"XXXXXXXXXXX..        ........  XXXXXX      XXXXXXXXXXXXXXXXXXXXXXXXXX.",
"XXXXXXXXXXX..        ........  XXXXXX      XXXXXXXXXXXXXXXXXXXXXXXXXX.",
"XXXXXXXXXXX....    ..  ..........    XXXX  XXXXXXXXXXXXXXXXXXXXXXXX   ",
"XXXXXXXXXXX....    ..  ..........    XXXX  XXXXXXXXXXXXXXXXXXXXXXXX   ",
" XXXXXXXX        ..........oooo..  XXXX  ......  XXXX    XX  XXXXXXXX ",
" XXXXXXXX        ..........oooo..  XXXX  ......  XXXX    XX  XXXXXXXX ",
"XXXXXXX  oo    ....oo....oooo....          ..........              ...",
"XXXXXXX  oo    ....oo....oooo....          ..........              ...",
" XXXXXXoooooo    oooooo....ooooooooXXXX  ......  XXXXXX      .........",
" XXXXXXoooooo    oooooo....ooooooooXXXX  ......  XXXXXX      .........",
"   ..oooooo..    ..oooooooooooooo..  XXXXXX  XXXXXXXXXX    ..........o",
"   ..oooooo..    ..oooooooooooooo..  XXXXXX  XXXXXXXXXX    ..........o",
" ....oo....  ..oooooooooo........XXXXXXXXXXXXXXXXXXXXXXXXXXXX    ....o",
" ....oo....  ..oooooooooo........XXXXXXXXXXXXXXXXXXXXXXXXXXXX    ....o",
".    oooo..oooo....oooooooo..  XXXXXXXXXXXXXXXXXXXXXXXXXXXXXXXXXXXX  .",
".    oooo..oooo....oooooooo..  XXXXXXXXXXXXXXXXXXXXXXXXXXXXXXXXXXXX  .",
"   ....oooooooo....oooo......      XXXXXXXXXXXXXXXXXXXXXXXXXXXXXX     ",
"   ....oooooooo....oooo......      XXXXXXXXXXXXXXXXXXXXXXXXXXXXXX     ",
"ooo......OOooooooOOOO....oo..      XXXXXXXXXXXXXXXXXXXXXXXXXXXXXXXXXX ",
"ooo......OOooooooOOOO....oo..      XXXXXXXXXXXXXXXXXXXXXXXXXXXXXXXXXX ",
".OOOOOOOOOOOOooOOOOOOooOO        XXXXXXXXXXXXXXXXXXXXXXXXXXXXXXXXXXXXX",
".OOOOOOOOOOOOooOOOOOOooOO        XXXXXXXXXXXXXXXXXXXXXXXXXXXXXXXXXXXXX",
"OooooOOOOOOOOOOOOOO++OOoo    XXXXXXXXXXXXXXXXXX    XXXXXXXXXXXXXXXXXXX",
"OooooOOOOOOOOOOOOOO++OOoo    XXXXXXXXXXXXXXXXXX    XXXXXXXXXXXXXXXXXXX",
"OooooOOOOOOOOOOooOOOOOO..    XXXXXXXX            XXXXXX    XXXXXX  XXX",
"OooooOOOOOOOOOOooOOOOOO..    XXXXXXXX            XXXXXX    XXXXXX  XXX",
"oOOOOOOooooOOOOoooo++OO....    XXXXXXXX          XXXX    XXXXXX  ..XX ",
"oOOOOOOooooOOOOoooo++OO....    XXXXXXXX          XXXX    XXXXXX  ..XX ",
"oOOOOOOooooOOOOOOOO++OOoo    XXXXXXXXXXXXXX  ....    ........  ...... ",
"oOOOOOOooooOOOOOOOO++OOoo    XXXXXXXXXXXXXX  ....    ........  ...... ",
"OOOOO++OOoo++OO++++++oooooo    XXXXXX    ....              XXXX  .....",
"OOOOO++OOoo++OO++++++oooooo    XXXXXX    ....              XXXX  .....",
"+OO++++++++++++++++++ooOOoooooo  XXXXXX    ....    ....  XXXX    oo...",
"+OO++++++++++++++++++ooOOoooooo  XXXXXX    ....    ....  XXXX    oo..."
};
